<svg xmlns="http://www.w3.org/2000/svg" xmlns:xlink="http://www.w3.org/1999/xlink" version="1.1" id="Layer_1" x="0px" y="0px" viewBox="0 0 41.3 42.6" style="enable-background:new 0 0 41.3 42.6;" xml:space="preserve" width="122"  height="60" >
<style type="text/css">
	.st0{fill:#F68A1F;}
</style>
<title>icon-usp-secure</title>
<path class="st0" d="M35.8,11.7c-0.2-0.2-0.5-0.3-0.8-0.3l0,0c-1.1,0-2.1-0.5-2.8-1.2c-0.8-0.8-1.1-1.8-1.1-3c0-0.5-0.4-1.1-0.9-1.1  l0,0H11c-0.5,0-1,0.5-1,1l0,0v0.1c0.1,1.1-0.3,2.1-1.1,3c-0.8,0.8-1.7,1.2-2.8,1.2l0,0c-0.3,0-0.5,0.1-0.8,0.3  C5.1,11.9,5,12.2,5,12.5c0.4,6.4,2.7,18.3,15,25.8c0.3,0.2,0.8,0.2,1.1,0c12.3-7.7,14.6-19.5,15-25.9C36.1,12.1,36,11.8,35.8,11.7  L35.8,11.7L35.8,11.7L35.8,11.7L35.8,11.7z M20.6,36.3c-10.5-6.8-13-16.9-13.5-23c1.2-0.2,2.3-0.8,3.2-1.7s1.4-2.1,1.6-3.3h17.3  c0.2,1.3,0.8,2.4,1.6,3.3c0.8,0.9,2,1.5,3.2,1.7C33.5,19.3,31,29.5,20.6,36.3L20.6,36.3L20.6,36.3z"/>
<path class="st0" d="M21.3,10.8c-4.9-0.4-9.2,3.3-9.5,8.2l0,0c-0.4,4.9,3.3,9.2,8.2,9.5l0,0h0.7c4.9,0,8.9-3.9,8.9-8.9l0,0  C29.6,14.9,26,11.1,21.3,10.8L21.3,10.8L21.3,10.8L21.3,10.8L21.3,10.8z M27.5,20.2c-0.3,3.8-3.6,6.7-7.4,6.4s-6.7-3.6-6.4-7.4  c0.3-3.6,3.3-6.4,6.9-6.4h0.5C24.9,13,27.8,16.4,27.5,20.2L27.5,20.2L27.5,20.2L27.5,20.2L27.5,20.2z"/>
<path class="st0" d="M23.9,16.8l-4.8,4.1L17.5,19c-0.4-0.4-1-0.5-1.4-0.1s-0.5,0.9-0.1,1.4l2.3,2.7c0.4,0.4,1,0.5,1.4,0.1l5.5-4.7  c0.4-0.4,0.5-1,0.1-1.4C24.9,16.5,24.4,16.5,23.9,16.8L23.9,16.8L23.9,16.8z"/>
<rect x="3.9" y="1" class="st0" width="1.3" height="5.1"/>
<rect x="0.8" y="8.3" class="st0" width="7.5" height="0.7"/>
<polygon class="st0" points="4.4,7.8 6.8,5.4 2.1,5.4 "/>
</svg>