<svg width="1501" height="196" viewBox="0 0 1501 196" fill="none" xmlns="http://www.w3.org/2000/svg">
<g clip-path="url(#clip0)">
<path d="M228.58 73.46C225.45 70.03 220.13 69.79 216.7 72.92L141.52 140.56C138.09 143.69 137.85 149.01 140.98 152.44C144.11 155.87 149.43 156.11 152.86 152.98L228.04 85.34C231.47 82.2 231.71 76.88 228.58 73.46Z" fill="black"/>
<path d="M147.19 172.07C161.168 172.07 172.5 160.738 172.5 146.76C172.5 132.782 161.168 121.45 147.19 121.45C133.212 121.45 121.88 132.782 121.88 146.76C121.88 160.738 133.212 172.07 147.19 172.07Z" fill="black"/>
<path d="M266.23 186.97L286.05 195.18C290.46 182.53 293.15 169.12 293.95 155.17H272.49C271.75 166.23 269.64 176.88 266.23 186.97Z" fill="url(#paint0_linear)"/>
<path d="M259.76 91.03L279.6 82.81C273.61 70.44 265.98 59.05 256.92 48.91L241.74 64.09C248.86 72.23 254.91 81.26 259.76 91.03Z" fill="url(#paint1_linear)"/>
<path d="M187.4 27.72L195.61 7.9C182.96 3.49 169.55 0.8 155.6 0V21.46C166.66 22.2 177.31 24.31 187.4 27.72Z" fill="url(#paint2_linear)"/>
<path d="M229.86 52.2L245.04 37.02C234.9 27.97 223.51 20.33 211.14 14.34L202.92 34.18C212.69 39.03 221.72 45.08 229.86 52.2Z" fill="url(#paint3_linear)"/>
<path d="M272.49 138.35H293.95C293.16 124.4 290.47 110.98 286.05 98.34L266.23 106.55C269.64 116.64 271.75 127.29 272.49 138.35Z" fill="url(#paint4_linear)"/>
<path d="M0 146.76C0 154.96 0.82 162.95 2.14 170.77H23.86C22.33 163 21.47 154.99 21.47 146.76C21.48 112.01 35.53 80.64 58.29 57.86C79.21 36.95 107.41 23.54 138.78 21.46V0C61.42 4.39 0.01 68.31 0 146.76Z" fill="black"/>
<path d="M419.98 84.84V84.09H433.62C436.65 84.09 439.27 83.76 441.49 83.1C443.71 82.44 445.61 81.58 447.17 80.53C448.73 79.47 450.02 78.31 451.03 77.04C452.04 75.78 452.9 74.49 453.61 73.18C455.73 69.24 457.01 65.23 457.47 61.14C457.92 57.05 458.15 53.09 458.15 49.25C458.15 45.41 457.9 41.48 457.4 37.44C456.89 33.4 455.37 29.56 452.85 25.93C451.33 23.61 449.64 21.79 447.78 20.47C445.91 19.16 443.97 18.2 441.95 17.6C439.93 16.99 437.91 16.61 435.89 16.46C433.87 16.31 431.95 16.23 430.13 16.23H362.72V122.26H382.72V32.13H382.79H383.13H422.56C424.17 32.13 426.05 32.26 428.16 32.51C430.28 32.76 432.15 33.7 433.76 35.31C434.87 36.42 435.78 38.09 436.49 40.31C437.2 42.53 437.54 45.76 437.54 50C437.54 50.91 437.52 52.02 437.47 53.33C437.41 54.64 437.32 55.98 437.16 57.34C437.01 58.7 436.75 60.04 436.41 61.35C436.05 62.66 435.63 63.73 435.12 64.53C433.71 66.65 431.97 67.96 429.89 68.47C427.82 68.98 425.93 69.23 424.21 69.23H404.22C401.29 69.23 399.06 69.91 397.55 71.28C396.03 72.64 395.27 74.38 395.27 76.51V78.93C395.27 80.45 395.83 82.04 396.94 83.7C398.05 85.36 399.16 86.76 400.27 87.87L435.1 122.25H460.25L419.98 84.84Z" fill="black"/>
<path d="M627.16 106.36V16.23H607.17V122.26H691.69V106.36H627.16Z" fill="black"/>
<path d="M735.08 106.36V16.23H715.08V122.26H799.6V106.36H735.08Z" fill="black"/>
<path d="M876.32 16.23H897.83L853 89.84V122.26H833V89.84L788.17 16.22H809.67L843 71.82L876.32 16.23Z" fill="black"/>
<path d="M520.39 17.67C520.59 17.53 520.5 17.38 520.29 17.24C520.24 17.59 520.26 17.76 520.39 17.67Z" fill="black"/>
<path d="M518.27 16.23L518.11 16.61L473.82 122.26H494.87L500.37 108.55L528.19 38.05C528.49 37.24 528.9 36.31 529.41 35.24C529.91 34.18 530.51 33.65 531.23 33.65C531.94 33.65 532.54 34.18 533.05 35.24C533.55 36.3 533.96 37.23 534.26 38.05L561.59 107.54L567.58 122.27H588.64L544.24 16.24H518.27V16.23ZM520.39 17.67C520.25 17.77 520.23 17.59 520.29 17.24C520.5 17.38 520.6 17.52 520.39 17.67Z" fill="black"/>
<path d="M1097.66 84.84V84.09H1111.3C1114.33 84.09 1116.95 83.76 1119.17 83.1C1121.39 82.44 1123.29 81.58 1124.85 80.53C1126.41 79.47 1127.7 78.31 1128.71 77.04C1129.72 75.78 1130.58 74.49 1131.29 73.18C1133.41 69.24 1134.69 65.23 1135.15 61.14C1135.6 57.05 1135.83 53.09 1135.83 49.25C1135.83 45.41 1135.58 41.48 1135.08 37.44C1134.57 33.4 1133.05 29.56 1130.53 25.93C1129.01 23.61 1127.32 21.79 1125.46 20.47C1123.59 19.16 1121.65 18.2 1119.63 17.6C1117.61 16.99 1115.59 16.61 1113.57 16.46C1111.55 16.31 1109.63 16.23 1107.81 16.23H1040.4V122.26H1060.4V32.13H1060.47H1060.81H1100.24C1101.85 32.13 1103.73 32.26 1105.84 32.51C1107.96 32.76 1109.83 33.7 1111.44 35.31C1112.55 36.42 1113.46 38.09 1114.17 40.31C1114.88 42.53 1115.22 45.76 1115.22 50C1115.22 50.91 1115.2 52.02 1115.15 53.33C1115.09 54.64 1115 55.98 1114.84 57.34C1114.68 58.7 1114.43 60.04 1114.09 61.35C1113.73 62.66 1113.31 63.73 1112.8 64.53C1111.39 66.65 1109.65 67.96 1107.57 68.47C1105.5 68.98 1103.61 69.23 1101.89 69.23H1081.9C1078.97 69.23 1076.74 69.91 1075.23 71.28C1073.71 72.64 1072.95 74.38 1072.95 76.51V78.93C1072.95 80.45 1073.51 82.04 1074.62 83.7C1075.73 85.36 1076.84 86.76 1077.95 87.87L1112.78 122.25H1137.93L1097.66 84.84Z" fill="black"/>
<path d="M1390.07 58.19C1389.92 54.76 1389.49 51.32 1388.78 47.89C1388.07 44.46 1386.98 41.13 1385.52 37.89C1384.05 34.66 1382.06 31.63 1379.54 28.8C1376.31 25.27 1372.16 22.29 1367.12 19.86C1362.07 17.44 1355.86 16.22 1348.49 16.22H1292V122.25H1351.22C1355.36 122.25 1359.04 121.85 1362.28 121.04C1365.51 120.23 1368.34 119.17 1370.76 117.86C1373.18 116.55 1375.2 115.14 1376.82 113.62C1378.43 112.11 1379.8 110.64 1380.91 109.23C1383.03 106.4 1384.72 103.2 1385.98 99.61C1387.24 96.03 1388.2 92.37 1388.86 88.63C1389.52 84.89 1389.92 81.26 1390.07 77.72C1390.22 74.19 1390.3 70.96 1390.3 68.03C1390.3 64.9 1390.23 61.62 1390.07 58.19ZM1368.04 86.74C1366.93 91.23 1365.71 94.49 1364.4 96.51C1362.08 100.25 1359.08 102.82 1355.39 104.24C1351.71 105.65 1347.08 106.36 1341.54 106.36H1312.02C1312.01 102.97 1312 99.63 1312 99.09V32.13H1339.57C1341.39 32.13 1343.3 32.23 1345.33 32.43C1347.35 32.63 1349.37 33.01 1351.39 33.57C1353.41 34.13 1355.35 34.91 1357.22 35.92C1359.09 36.93 1360.78 38.25 1362.29 39.86C1363.9 41.58 1365.22 43.52 1366.23 45.69C1367.24 47.86 1367.99 50.11 1368.5 52.43C1369 54.75 1369.33 57.12 1369.49 59.55C1369.64 61.97 1369.71 64.3 1369.71 66.52C1369.7 75.51 1369.15 82.25 1368.04 86.74Z" fill="black"/>
<path d="M1435.63 106.36V76.06H1498.48V60.15H1435.63V32.13H1500V16.23H1415.63V122.26H1500.61V106.36H1435.63Z" fill="black"/>
<path d="M1199.67 16.23L1199.51 16.61L1155.22 122.26H1176.27L1181.77 108.55L1209.59 38.05C1209.89 37.24 1210.3 36.31 1210.81 35.24C1211.31 34.18 1211.91 33.65 1212.63 33.65C1213.34 33.65 1213.94 34.18 1214.45 35.24C1214.95 36.3 1215.36 37.23 1215.66 38.05L1242.99 107.54L1248.98 122.27H1270.04L1225.64 16.24H1199.67V16.23ZM1201.8 17.67L1201.7 17.24L1201.8 17.67Z" fill="black"/>
<path d="M922.58 16.23L912.89 32.13H954V122.26H973.99V32.13H1015.5V16.23H922.58Z" fill="black"/>
<path d="M362.73 144.09H373.25C376.32 144.09 379.1 144.53 381.6 145.4C384.1 146.27 386.22 147.48 387.99 149.04C389.75 150.59 391.11 152.43 392.07 154.56C393.03 156.69 393.51 159.01 393.51 161.52C393.51 164.03 393.03 166.35 392.07 168.48C391.11 170.61 389.75 172.45 387.99 174C386.23 175.55 384.1 176.77 381.6 177.64C379.11 178.51 376.32 178.95 373.25 178.95H362.73V144.09ZM373.41 173.14C375.26 173.14 376.97 172.88 378.54 172.35C380.11 171.82 381.46 171.06 382.6 170.06C383.73 169.06 384.62 167.84 385.24 166.41C385.87 164.97 386.18 163.34 386.18 161.52C386.18 159.7 385.87 158.07 385.24 156.63C384.61 155.19 383.73 153.98 382.6 152.98C381.47 151.98 380.11 151.22 378.54 150.69C376.97 150.16 375.26 149.9 373.41 149.9H370.06V173.14H373.41V173.14Z" fill="black"/>
<path d="M456.53 154.72C456.53 157.2 455.83 159.28 454.44 160.97C453.04 162.66 451.04 163.96 448.42 164.87L460.2 178.95H451.09L440.99 166.23H438.63V178.95H431.3V144.09H441.72C443.88 144.09 445.87 144.31 447.69 144.74C449.51 145.17 451.07 145.84 452.38 146.73C453.69 147.62 454.71 148.73 455.44 150.05C456.17 151.39 456.53 152.94 456.53 154.72ZM449.2 154.88C449.2 153.1 448.5 151.81 447.11 151.01C445.71 150.21 443.9 149.81 441.67 149.81H438.64V160.7H440.84C443.35 160.7 445.38 160.21 446.91 159.23C448.44 158.24 449.2 156.8 449.2 154.88Z" fill="black"/>
<path d="M503.9 178.96H496.57V144.1H503.9V178.96Z" fill="black"/>
<path d="M564.73 144.09H572.37L560.64 178.95H552.16L540.44 144.09H548.08L556.4 171.52L564.73 144.09Z" fill="black"/>
<path d="M608.65 144.09H629.59V149.9H615.98V158.33H628.96V164.14H615.98V173.14H629.75V178.95H608.66V144.09H608.65Z" fill="black"/>
<path d="M735.69 144.09V149.9H726.06V178.95H718.73V149.9H709.1V144.09H735.69Z" fill="black"/>
<path d="M794.58 178.96V164.3H780.13V178.96H772.8V144.1H780.13V158.23H794.58V144.1H801.91V178.96H794.58V178.96Z" fill="black"/>
<path d="M841.69 144.09H862.63V149.9H849.02V158.33H862V164.14H849.02V173.14H862.79V178.95H841.7V144.09H841.69Z" fill="black"/>
<path d="M974.7 144.09H981.3L983.86 178.95H976.69L975.49 157.28L967.79 173.09H960.25L952.55 157.28L951.35 178.95H944.18L946.74 144.09H953.33L964.01 166.6L974.7 144.09Z" fill="black"/>
<path d="M1054.26 178.96H1046.67L1044.21 171.63H1029.87L1027.41 178.96H1019.82L1033.06 144.1H1041.02L1054.26 178.96ZM1037.04 149.96L1031.81 165.82H1042.28L1037.04 149.96Z" fill="black"/>
<path d="M1116.61 154.72C1116.61 157.2 1115.91 159.28 1114.52 160.97C1113.12 162.66 1111.12 163.96 1108.5 164.87L1120.28 178.95H1111.17L1101.07 166.23H1098.71V178.95H1091.38V144.09H1101.8C1103.96 144.09 1105.95 144.31 1107.77 144.74C1109.58 145.18 1111.15 145.84 1112.46 146.73C1113.77 147.62 1114.79 148.73 1115.52 150.05C1116.24 151.39 1116.61 152.94 1116.61 154.72ZM1109.28 154.88C1109.28 153.1 1108.58 151.81 1107.19 151.01C1105.79 150.21 1103.98 149.81 1101.75 149.81H1098.72V160.7H1100.92C1103.43 160.7 1105.46 160.21 1106.99 159.23C1108.51 158.24 1109.28 156.8 1109.28 154.88Z" fill="black"/>
<path d="M1156.39 178.96V144.1H1163.72V160.85L1175.81 144.1H1184.29L1171.46 161.32L1185.17 178.96H1176.12L1163.71 161.84V178.96H1156.39V178.96Z" fill="black"/>
<path d="M1221.56 144.09H1242.5V149.9H1228.89V158.33H1241.87V164.14H1228.89V173.14H1242.66V178.95H1221.57V144.09H1221.56Z" fill="black"/>
<path d="M1305.42 144.09V149.9H1295.79V178.95H1288.46V149.9H1278.83V144.09H1305.42Z" fill="black"/>
</g>
<defs>
<linearGradient id="paint0_linear" x1="164.577" y1="-4.4107" x2="292.905" y2="190.54" gradientUnits="userSpaceOnUse">
<stop stop-color="#00C176"/>
<stop offset="0.25" stop-color="#88C100"/>
<stop offset="0.6969" stop-color="#FF8A00"/>
<stop offset="0.9209" stop-color="#FF252C"/>
<stop offset="1" stop-color="#FF003C"/>
</linearGradient>
<linearGradient id="paint1_linear" x1="196.394" y1="-25.3546" x2="324.722" y2="169.596" gradientUnits="userSpaceOnUse">
<stop stop-color="#00C176"/>
<stop offset="0.25" stop-color="#88C100"/>
<stop offset="0.6969" stop-color="#FF8A00"/>
<stop offset="0.9209" stop-color="#FF252C"/>
<stop offset="1" stop-color="#FF003C"/>
</linearGradient>
<linearGradient id="paint2_linear" x1="163.501" y1="-3.7021" x2="291.828" y2="191.249" gradientUnits="userSpaceOnUse">
<stop stop-color="#00C176"/>
<stop offset="0.25" stop-color="#88C100"/>
<stop offset="0.6969" stop-color="#FF8A00"/>
<stop offset="0.9209" stop-color="#FF252C"/>
<stop offset="1" stop-color="#FF003C"/>
</linearGradient>
<linearGradient id="paint3_linear" x1="187.641" y1="-19.5926" x2="315.969" y2="175.358" gradientUnits="userSpaceOnUse">
<stop stop-color="#00C176"/>
<stop offset="0.25" stop-color="#88C100"/>
<stop offset="0.6969" stop-color="#FF8A00"/>
<stop offset="0.9209" stop-color="#FF252C"/>
<stop offset="1" stop-color="#FF003C"/>
</linearGradient>
<linearGradient id="paint4_linear" x1="188.218" y1="-19.9727" x2="316.546" y2="174.978" gradientUnits="userSpaceOnUse">
<stop stop-color="#00C176"/>
<stop offset="0.25" stop-color="#88C100"/>
<stop offset="0.6969" stop-color="#FF8A00"/>
<stop offset="0.9209" stop-color="#FF252C"/>
<stop offset="1" stop-color="#FF003C"/>
</linearGradient>
<clipPath id="clip0">
<rect width="1500.61" height="195.18" fill="white"/>
</clipPath>
</defs>
</svg>
