<svg xmlns="http://www.w3.org/2000/svg" xmlns:xlink="http://www.w3.org/1999/xlink" version="1.1" id="Layer_1" x="0px" y="0px" viewBox="-41 149 496 496" style="enable-background:new -41 149 496 496;" xml:space="preserve" width="161"  height="60" >
<style type="text/css">
	.st0{fill:#FF8A00;}
</style>
<g>
	<path class="st0" d="M311,357v-8H143V181h-8c-97.05,0-176,78.95-176,176c0,79.1,52.35,147.62,128,169.01V645h368V381H309.1   C310.23,372.94,311,364.9,311,357z M383,501c-4.42,0-8-3.58-8-8s3.58-8,8-8h16c4.42,0,8,3.58,8,8s-3.58,8-8,8H383z M399,437   c4.42,0,8,3.58,8,8s-3.58,8-8,8h-16c-4.42,0-8-3.58-8-8s3.58-8,8-8H399z M359,445c0,13.23,10.77,24,24,24c-13.23,0-24,10.77-24,24   s10.77,24,24,24v48c-13.23,0-24,10.77-24,24s10.77,24,24,24v16h-64v-16c13.23,0,24-10.77,24-24s-10.77-24-24-24   c13.23,0,24-10.77,24-24s-10.77-24-24-24v-48c13.23,0,24-10.77,24-24s-10.77-24-24-24v-24h64v24C369.77,421,359,431.77,359,445z    M383,597c-4.42,0-8-3.58-8-8s3.58-8,8-8h16c4.42,0,8,3.58,8,8s-3.58,8-8,8H383z M319,533c4.42,0,8,3.58,8,8s-3.58,8-8,8h-16   c-4.42,0-8-3.58-8-8s3.58-8,8-8H319z M303,597c-4.42,0-8-3.58-8-8s3.58-8,8-8h16c4.42,0,8,3.58,8,8s-3.58,8-8,8H303z M319,437   c4.42,0,8,3.58,8,8s-3.58,8-8,8h-16c-4.42,0-8-3.58-8-8s3.58-8,8-8H319z M303,421c-13.23,0-24,10.77-24,24s10.77,24,24,24v48   c-13.23,0-24,10.77-24,24s10.77,24,24,24c-13.23,0-24,10.77-24,24s10.77,24,24,24v16h-64v-64c13.23,0,24-10.77,24-24   s-10.77-24-24-24c13.23,0,24-10.77,24-24s-10.77-24-24-24c13.23,0,24-10.77,24-24s-10.77-24-24-24v-24h64V421z M159,485   c4.42,0,8,3.58,8,8s-3.58,8-8,8h-16c-4.42,0-8-3.58-8-8s3.58-8,8-8H159z M143,597c-4.42,0-8-3.58-8-8s3.58-8,8-8h16   c4.42,0,8,3.58,8,8s-3.58,8-8,8H143z M183,589c0-13.23-10.77-24-24-24c13.23,0,24-10.77,24-24s-10.77-24-24-24   c13.23,0,24-10.77,24-24s-10.77-24-24-24v-72h64v24c-13.23,0-24,10.77-24,24s10.77,24,24,24c-13.23,0-24,10.77-24,24   s10.77,24,24,24c-13.23,0-24,10.77-24,24s10.77,24,24,24v64h-64v-16C172.23,613,183,602.23,183,589z M143,549c-4.42,0-8-3.58-8-8   s3.58-8,8-8h16c4.42,0,8,3.58,8,8s-3.58,8-8,8H143z M223,549c-4.42,0-8-3.58-8-8s3.58-8,8-8h16c4.42,0,8,3.58,8,8s-3.58,8-8,8H223z    M239,437c4.42,0,8,3.58,8,8s-3.58,8-8,8h-16c-4.42,0-8-3.58-8-8s3.58-8,8-8H239z M239,485c4.42,0,8,3.58,8,8s-3.58,8-8,8h-16   c-4.42,0-8-3.58-8-8s3.58-8,8-8H239z M-25,357c0-85.54,67.48-155.62,152-159.81V365h167.79c-0.28,5.3-0.93,10.64-1.74,16H87v128.37   C20.58,488.57-25,427.38-25,357z M103,397h40v72c-13.23,0-24,10.77-24,24s10.77,24,24,24c-13.23,0-24,10.77-24,24s10.77,24,24,24   c-13.23,0-24,10.77-24,24s10.77,24,24,24v16h-40V397z M439,629h-40v-16c13.23,0,24-10.77,24-24s-10.77-24-24-24v-48   c13.23,0,24-10.77,24-24s-10.77-24-24-24c13.23,0,24-10.77,24-24s-10.77-24-24-24v-24h40V629z"/>
	<path class="st0" d="M315.69,149l-38.73,38.73C246.81,163.53,208.58,149,167,149h-8v184h184v-8c0-49.71-20.75-94.65-54.01-126.68   L322.31,165H455v-16H315.69z M326.81,317H175V165.19c34.07,1.69,65.28,14.19,90.5,33.98l-48.16,48.16l11.31,11.31l48.98-48.98   C306.2,237.09,324.72,274.89,326.81,317z"/>
	<rect x="439" y="181" class="st0" width="16" height="16"/>
	<rect x="335" y="181" class="st0" width="88" height="16"/>
</g>
</svg>