<svg xmlns="http://www.w3.org/2000/svg" xmlns:xlink="http://www.w3.org/1999/xlink" version="1.1" id="Layer_1" x="0px" y="0px" viewBox="0 0 390.4 304.8" style="enable-background:new 0 0 390.4 304.8;" xml:space="preserve" width="390.4"  height="304.8" >
<style type="text/css">
	.st0{fill:#F68A1F;}
</style>
<g>
	<g>
		<path class="st0" d="M390.14,220.39L357.25,96.53c-0.08-0.32-0.16-0.56-0.24-0.88c-0.4-1.12-1.04-2.08-1.84-2.88    c-0.72-0.72-1.68-1.36-2.64-1.76c-0.24-0.08-0.56-0.24-0.88-0.32L197.6,45.56h-0.08L43.25,0.36c-1.36-0.4-2.8-0.48-4.24-0.16    c-2.08,0.48-3.84,1.76-4.88,3.44c-0.08,0.08-0.16,0.24-0.16,0.32c-0.4,0.64-0.64,1.36-0.8,2.08L0.28,128.62    c-0.64,2.4-0.16,4.96,1.36,6.96c1.52,2,3.84,3.12,6.32,3.12h62.18c2.48,0,4.8-1.12,6.24-3.04c1.44-1.92,2.08-4.4,1.52-6.8    L51.81,19.56l135.32,39.68v204.83H65.17c-4.4,0-8,3.6-8,8c0,4.4,3.6,8,8,8H325c4.4,0,8-3.6,8-8c0-4.4-3.6-8-8-8H203.13V63.97    l136.59,40.08l-30.33,116.42c-0.64,2.4-0.08,4.96,1.44,6.88c1.52,1.92,3.84,3.12,6.32,3.12h65.3c2.48,0,4.8-1.12,6.32-3.12    C390.22,225.35,390.78,222.79,390.14,220.39L390.14,220.39z M59.97,122.69H18.36l22.09-82.17L59.97,122.69z M327.48,214.39    l22.01-84.49l22.49,84.49H327.48z M327.48,214.39"/>
	</g>
	<path class="st0" d="M113.43,288.8H89.66c-4.4,0-8,3.6-8,8c0,4.4,3.6,8,8,8h23.77c4.4,0,8-3.6,8-8   C121.43,292.4,117.83,288.8,113.43,288.8L113.43,288.8z M113.43,288.8"/>
	<path class="st0" d="M300.68,288.8h-23.77c-4.4,0-8,3.6-8,8c0,4.4,3.6,8,8,8h23.77c4.4,0,8-3.6,8-8   C308.68,292.4,305.07,288.8,300.68,288.8L300.68,288.8z M300.68,288.8"/>
</g>
</svg>