<svg xmlns="http://www.w3.org/2000/svg" xmlns:xlink="http://www.w3.org/1999/xlink" version="1.1" id="Isolation_Mode" x="0px" y="0px" viewBox="0 0 48 48" style="enable-background:new 0 0 48 48;" xml:space="preserve" width="171"  height="60" >
<style type="text/css">
	.st0{fill:#F68A1F;}
</style>
<path class="st0" d="M28.8,27.2h1.6v-4c0-4.32-3.36-7.84-7.6-8c0.24-0.48,0.4-1.04,0.4-1.6V12c0-1.76-1.44-3.2-3.2-3.2h-9.6  c-1.76,0-3.2,1.44-3.2,3.2v1.6c0,0.56,0.16,1.12,0.4,1.6c-4.24,0.24-7.6,3.68-7.6,8V40c0,4.4,3.6,8,8,8h14.4v-1.6H8  c-3.52,0-6.4-2.88-6.4-6.4V23.2c0-3.52,2.88-6.4,6.4-6.4h8.8v-1.6h-6.4c-0.88,0-1.6-0.72-1.6-1.6V12c0-0.88,0.72-1.6,1.6-1.6H20  c0.88,0,1.6,0.72,1.6,1.6v1.6c0,0.88-0.72,1.6-1.6,1.6c-0.48,0-0.8,0.32-0.8,0.8c0,0.48,0.32,0.8,0.8,0.8h2.4  c3.52,0,6.4,2.88,6.4,6.4V27.2z M28.8,27.2"/>
<path class="st0" d="M14.4,25.6H16c1.36,0,2.4,1.04,2.4,2.4H20c0-2.24-1.76-4-4-4v-1.6h-1.6V24c-2.24,0-4,1.76-4,4  c0,2.24,1.76,4,4,4H16c1.36,0,2.4,1.04,2.4,2.4c0,1.36-1.04,2.4-2.4,2.4h-1.6c-1.36,0-2.4-1.04-2.4-2.4h-1.6c0,2.24,1.76,4,4,4V40  H16v-1.6c2.24,0,4-1.76,4-4c0-2.24-1.76-4-4-4h-1.6c-1.36,0-2.4-1.04-2.4-2.4C12,26.64,13.04,25.6,14.4,25.6L14.4,25.6z M14.4,25.6"/>
<rect x="8" y="18.4" class="st0" width="1.6" height="1.6"/>
<rect x="11.2" y="18.4" class="st0" width="1.6" height="1.6"/>
<rect x="14.4" y="18.4" class="st0" width="1.6" height="1.6"/>
<rect x="17.6" y="18.4" class="st0" width="1.6" height="1.6"/>
<rect x="20.8" y="18.4" class="st0" width="1.6" height="1.6"/>
<path class="st0" d="M47.2,24h-9.6c-0.48,0-0.8,0.32-0.8,0.8v5.6H28c-0.48,0-0.8,0.32-0.8,0.8v16c0,0.48,0.32,0.8,0.8,0.8h19.2  c0.48,0,0.8-0.32,0.8-0.8V24.8C48,24.32,47.68,24,47.2,24L47.2,24z M38.4,28.8h8v1.6h-8V28.8z M46.4,32v1.6h-8V32H46.4z M46.4,36.8  h-8v-1.6h8V36.8z M46.4,40h-8v-1.6h8V40z M28.8,38.4h8V40h-8V38.4z M36.8,36.8h-8v-1.6h8V36.8z M28.8,41.6h8v1.6h-8V41.6z   M38.4,41.6h8v1.6h-8V41.6z M38.4,25.6h8v1.6h-8V25.6z M28.8,32h8v1.6h-8V32z M28.8,44.8h8v1.6h-8V44.8z M46.4,46.4h-8v-1.6h8V46.4z   M46.4,46.4"/>
<path class="st0" d="M47.2,0H29.6c-0.48,0-0.8,0.32-0.8,0.8v14.4c0,0.24,0.16,0.48,0.32,0.64l8.8,6.4c0.16,0.08,0.32,0.16,0.48,0.16  c0.16,0,0.32-0.08,0.48-0.16l8.8-6.4c0.16-0.16,0.32-0.4,0.32-0.64V0.8C48,0.32,47.68,0,47.2,0L47.2,0z M46.4,1.6v4.8h-16V1.6H46.4z   M38.4,20.64l-8-5.84V8h16v6.8L38.4,20.64z M38.4,20.64"/>
<rect x="32.8" y="3.2" class="st0" width="1.6" height="1.6"/>
<rect x="36" y="3.2" class="st0" width="1.6" height="1.6"/>
<rect x="39.2" y="3.2" class="st0" width="1.6" height="1.6"/>
<path class="st0" d="M37.44,14.08l-1.84-1.2l-0.88,1.36l2.4,1.6C37.28,15.92,37.44,16,37.6,16c0.24,0,0.4-0.08,0.48-0.32l4.8-4.8  l-1.12-1.12L37.44,14.08z M37.44,14.08"/>
</svg>