<svg xmlns="http://www.w3.org/2000/svg" xmlns:xlink="http://www.w3.org/1999/xlink" version="1.1" id="Isolation_Mode" x="0px" y="0px" viewBox="0 0 30.1 29.79" style="enable-background:new 0 0 30.1 29.79;" xml:space="preserve" width="98"  height="60" >
<style type="text/css">
	.st0{fill:#F68A1F;}
</style>
<g>
	<path class="st0" d="M22.92,5.91l2.42,1.31c0.71,0.37,1.01,1.21,0.64,1.92l-1.24,2.45l1.21,2.49c0.3,0.71,0.03,1.55-0.64,1.92   l-0.71,0.37l5.14,5.92c0.4,0.47,0.47,1.01,0.2,1.61c-0.27,0.57-0.74,0.87-1.38,0.84l-3.8-0.1l-1.21,4.1   c-0.17,0.64-0.61,0.97-1.24,1.04c-0.64,0.07-1.14-0.17-1.45-0.71l-4.07-7.16l-0.77,0.74c-0.64,0.57-1.51,0.54-2.08,0l-0.64-0.67   l-4.07,7.09c-0.3,0.5-0.77,0.74-1.41,0.71c-0.64-0.07-1.08-0.4-1.28-1.04l-1.18-4.1l-3.83,0.1c-0.64,0.03-1.11-0.27-1.38-0.84   c-0.27-0.6-0.2-1.14,0.24-1.61l5.18-5.98l-0.81-0.44c-0.71-0.37-1.01-1.21-0.64-1.92l1.24-2.45L4.16,9C3.86,8.3,4.13,7.46,4.8,7.09   l2.45-1.28l0.5-2.72C7.89,2.32,8.63,1.78,9.4,1.91l2.72,0.4l1.98-1.92c0.57-0.54,1.48-0.54,2.02,0.03l1.98,1.92l2.72-0.37   c0.77-0.1,1.51,0.44,1.65,1.21L22.92,5.91z M12.13,20.7l-2.86,0.4c-0.77,0.1-1.51-0.44-1.65-1.21l-0.44-2.72l-0.17-0.1l-5.24,6.05   l4.77-0.1L7.99,28L12.13,20.7z M20.9,3.59l-2.66,0.37c-0.47,0.07-0.87-0.07-1.21-0.4l-1.92-1.92l-1.95,1.88   C12.8,3.86,12.4,4,11.96,3.93L9.3,3.53L8.83,6.15c-0.1,0.5-0.37,0.84-0.77,1.04L5.67,8.43l1.18,2.42c0.2,0.44,0.2,0.84,0,1.28   l-1.21,2.42l2.35,1.24c0.4,0.24,0.67,0.6,0.77,1.04l0.44,2.66l2.66-0.37c0.44-0.07,0.84,0.07,1.21,0.4l1.92,1.92l1.95-1.88   c0.34-0.34,0.74-0.47,1.21-0.4l2.66,0.4l0.47-2.62c0.1-0.5,0.37-0.84,0.77-1.04l2.39-1.24l-1.18-2.42c-0.2-0.44-0.2-0.84,0-1.28   l1.21-2.42l-2.35-1.24c-0.4-0.24-0.67-0.57-0.77-1.04L20.9,3.59z M23.15,17.14l-0.3,0.13L22.34,20c-0.13,0.77-0.87,1.31-1.65,1.18   l-2.76-0.5L22.11,28l1.48-4.98l4.77,0.1L23.15,17.14z"/>
	<g>
		<path class="st0" d="M14.3,9.16h-1.69V8.04h0.16c0.58,0,1.03-0.11,1.36-0.32c0.33-0.22,0.54-0.56,0.63-1.04h1.27v8.5H14.3V9.16z"/>
	</g>
</g>
</svg>