<svg xmlns="http://www.w3.org/2000/svg" xmlns:xlink="http://www.w3.org/1999/xlink" version="1.1" id="Layer_1" x="0px" y="0px" viewBox="0 0 284.35 259.34" style="enable-background:new 0 0 284.35 259.34;" xml:space="preserve" width="284.35"  height="259.34" >
<style type="text/css">
	.st0{fill:#F68A1F;}
</style>
<g>
	<g>
		<path class="st0" d="M6.4,259.34c-0.8,0-1.61-0.15-2.4-0.47c-3.28-1.33-4.86-5.06-3.52-8.34l17.65-43.51    c7.6-18.72,21.07-43.46,50.67-44.66c0.25-0.03,0.5-0.05,0.76-0.05h26.4c0.25,0,0.51,0.02,0.76,0.05    c29.6,1.2,43.07,25.93,50.67,44.66l2.28,5.61l47.44-43.85c2.6-2.4,6.65-2.24,9.05,0.36c2.4,2.6,2.24,6.64-0.36,9.04l-54.25,50.13    c-1.54,1.42-3.69,2-5.74,1.55c-2.05-0.46-3.75-1.89-4.53-3.84l-5.75-14.19c-9.14-22.53-19.69-33.75-34.48-36.2l-3.76,17.96    l5.04,45.3c0.24,2.18-0.65,4.33-2.36,5.7l-11.21,9.01c-1.14,0.91-2.55,1.41-4.01,1.41h-3.98c-1.46,0-2.87-0.5-4.01-1.41    l-11.21-9.01c-1.71-1.37-2.59-3.52-2.36-5.7l5.04-45.3l-3.76-17.96c-14.78,2.45-25.33,13.67-34.48,36.2l-17.66,43.51    C11.32,257.83,8.93,259.34,6.4,259.34L6.4,259.34z M76.3,236.82l6.45,5.18l6.45-5.18l-4.12-37.12h-4.65L76.3,236.82z M79.9,186.89    h5.71l2.47-11.77H77.43L79.9,186.89z M277.95,238.92h-97.29c-3.53,0-6.4-2.87-6.4-6.4c0-3.54,2.87-6.4,6.4-6.4h90.89V41.85H17.87    v134.67c0,3.54-2.86,6.4-6.4,6.4s-6.4-2.87-6.4-6.4V35.45c0-3.53,2.86-6.4,6.4-6.4h266.48c3.54,0,6.4,2.86,6.4,6.4v197.07    C284.35,236.05,281.48,238.92,277.95,238.92L277.95,238.92z M114.44,208.62c-3.54,0-6.4-2.87-6.4-6.4v-0.87    c0-3.54,2.87-6.4,6.4-6.4c3.53,0,6.4,2.86,6.4,6.4v0.87C120.84,205.76,117.97,208.62,114.44,208.62L114.44,208.62z M82.76,150.59    c-19.42,0-35.21-15.8-35.21-35.21c0-19.41,15.8-35.21,35.21-35.21c2.33,0,4.61,0.23,6.82,0.66c0.13,0.02,0.25,0.05,0.38,0.08    c15.98,3.33,28.01,17.52,28.01,34.47C117.97,134.79,102.17,150.59,82.76,150.59L82.76,150.59z M71.33,96.1    c-6.57,3.91-10.99,11.09-10.99,19.27c0,12.36,10.06,22.42,22.42,22.42c12.35,0,22.41-10.06,22.41-22.42    c0-9.35-5.76-17.39-13.92-20.74c-2.92,3.85-6.61,7.08-10.87,9.47c-3.08,1.73-6.99,0.63-8.72-2.45    C70.68,99.89,70.61,97.84,71.33,96.1L71.33,96.1z M243.25,107.81H210.4c-3.53,0-6.4-2.87-6.4-6.4c0-3.54,2.87-6.4,6.4-6.4h32.84    c3.54,0,6.4,2.87,6.4,6.4C249.65,104.94,246.78,107.81,243.25,107.81L243.25,107.81z M180.66,107.81h-12.2    c-3.54,0-6.4-2.87-6.4-6.4c0-3.54,2.86-6.4,6.4-6.4h12.2c3.54,0,6.4,2.87,6.4,6.4C187.07,104.94,184.2,107.81,180.66,107.81    L180.66,107.81z M243.25,81.11h-65.69c-3.53,0-6.4-2.87-6.4-6.4c0-3.54,2.86-6.4,6.4-6.4h65.69c3.54,0,6.4,2.86,6.4,6.4    C249.65,78.24,246.78,81.11,243.25,81.11L243.25,81.11z M177.56,12.8h-65.7c-3.53,0-6.4-2.87-6.4-6.4c0-3.53,2.86-6.4,6.4-6.4    h65.7c3.54,0,6.4,2.87,6.4,6.4C183.96,9.93,181.09,12.8,177.56,12.8L177.56,12.8z M177.56,12.8"/>
	</g>
</g>
</svg>